/* XPM */
static char *result[] = {
/* columns rows colors chars-per-pixel */
"50 50 221 2 ",
"   c #040103",
".  c #090505",
"X  c #0B0806",
"o  c #040208",
"O  c #0D040C",
"+  c #0E090D",
"@  c #120403",
"#  c #190406",
"$  c #110A07",
"%  c #14050D",
"&  c #1A040A",
"*  c #12090A",
"=  c #1B0A07",
"-  c #1F1004",
";  c #0E0713",
":  c #0E0912",
">  c #020013",
",  c #150516",
"<  c #1F1012",
"1  c #210E04",
"2  c #240B08",
"3  c #2A0D0B",
"4  c #2D140B",
"5  c #201004",
"6  c #32130E",
"7  c #311909",
"8  c #2C0E10",
"9  c #350F15",
"0  c #241314",
"q  c #2C1613",
"w  c #2C1915",
"e  c #2C1B19",
"r  c #251A19",
"t  c #331413",
"y  c #391715",
"u  c #331A14",
"i  c #3A1914",
"p  c #38121A",
"a  c #341A19",
"s  c #3B1C1A",
"d  c #361118",
"f  c #3D241C",
"g  c #3B2621",
"h  c #501C0D",
"j  c #421C1B",
"k  c #451A10",
"l  c #5B1C18",
"z  c #56241B",
"x  c #582419",
"c  c #562617",
"v  c #782C0F",
"b  c #622717",
"n  c #752F11",
"m  c #732E1B",
"M  c #7D2F1F",
"N  c #7D3012",
"B  c #7B311B",
"V  c #73341E",
"C  c #6F2508",
"Z  c #402926",
"A  c #5E2122",
"S  c #562622",
"D  c #44312E",
"F  c #4C3835",
"G  c #7D2C21",
"H  c #7B3422",
"J  c #68453D",
"K  c #63423A",
"L  c #674542",
"P  c #6A4442",
"I  c #77504A",
"U  c #83341E",
"Y  c #8D321A",
"T  c #8F3E1F",
"R  c #863416",
"E  c #91381F",
"W  c #822B15",
"Q  c #BF3E13",
"!  c #BF3E19",
"~  c #B33914",
"^  c #822C20",
"/  c #863522",
"(  c #893B24",
")  c #853B26",
"_  c #953D26",
"`  c #983D28",
"'  c #C13F16",
"]  c #C03F1C",
"[  c #AF431C",
"{  c #BF4114",
"}  c #B5421F",
"|  c #BB571B",
" . c #9A4228",
".. c #95503A",
"X. c #874530",
"o. c #BC4423",
"O. c #B44926",
"+. c #BC4B25",
"@. c #B54929",
"#. c #BE4B29",
"$. c #B44327",
"%. c #BD532C",
"&. c #BB5421",
"*. c #AE4B30",
"=. c #B44731",
"-. c #C04115",
";. c #C4451C",
":. c #C9451C",
">. c #C44C1D",
",. c #CA4B1E",
"<. c #C84012",
"1. c #D34A17",
"2. c #CC511E",
"3. c #C3531E",
"4. c #D6521E",
"5. c #DA511F",
"6. c #CB460D",
"7. c #C64D26",
"8. c #C94F25",
"9. c #C64D29",
"0. c #C94C29",
"q. c #C54727",
"w. c #D44F2C",
"e. c #D74E26",
"r. c #C65125",
"t. c #CC5326",
"y. c #C5502A",
"u. c #CB5229",
"i. c #CB5A2E",
"p. c #C7582E",
"a. c #D55527",
"s. c #D95527",
"d. c #D45826",
"f. c #D45229",
"g. c #DB552A",
"h. c #D4592A",
"j. c #DA5B2D",
"k. c #D85824",
"l. c #CA4C31",
"z. c #D74E33",
"x. c #CB5A31",
"c. c #C85734",
"v. c #D15434",
"b. c #DD5A32",
"n. c #D45634",
"m. c #E45A25",
"M. c #E2572A",
"N. c #E35A2B",
"B. c #E85926",
"V. c #E45B36",
"C. c #F45F31",
"Z. c #DC6337",
"A. c #EC6036",
"S. c #F26132",
"D. c #8F5F4E",
"F. c #995946",
"G. c #8F6459",
"H. c #966A5D",
"J. c #986A5C",
"K. c #94675A",
"L. c #A96E5B",
"P. c #8D6E63",
"I. c #8F6664",
"U. c #936C61",
"Y. c #996F66",
"T. c #9B7368",
"R. c #9D7D73",
"E. c #897069",
"W. c #AA7E6E",
"Q. c #B17E6D",
"!. c #D46D44",
"~. c #D56A4D",
"^. c #DD6B48",
"/. c #DA7656",
"(. c #DA7758",
"). c #DA7958",
"_. c #CA6A4F",
"`. c #E36E4F",
"'. c #E47757",
"]. c #DC856F",
"[. c #E68D69",
"{. c #ED8A6C",
"}. c #F4906B",
"|. c #E68B75",
" X c #E0987F",
".X c #FA9678",
"XX c #B79387",
"oX c #D09D8B",
"OX c #CD9C92",
"+X c #D19C94",
"@X c #C59584",
"#X c #F49C86",
"$X c #F59F89",
"%X c #D6A590",
"&X c #F5A185",
"*X c #F5A089",
"=X c #F9A68B",
"-X c #F9AE9C",
";X c #F7B096",
":X c #FDB19E",
">X c #FEB99C",
",X c #E7A891",
"<X c #D9AEA0",
"1X c #FCAEA0",
"2X c #E0B5A2",
"3X c #FDB2A0",
"4X c #F4BBA5",
"5X c #F4BFA9",
"6X c #FFBFAB",
"7X c #F3BDB3",
"8X c #EDC5AE",
"9X c #F4C1AA",
"0X c #FFC3AE",
"qX c #FFC2A3",
"wX c #EECCBE",
"eX c #FFC3B0",
"rX c #F8CBB6",
"tX c #FCD1B9",
"yX c #FCD1B7",
"uX c #F6D8C1",
"iX c #FCE7D1",
/* pixels */
"1X3X:X3X:X:X-X3X:X:X-X3X3X3X:X:X:X3X:X-X-X-X-X-X:X:X3X3X,XJ.j * Z Q.3X:X:X:X3X-X3X3X1X:X:X:X:X>X:X3X",
"#X*X&X&X*X*X$X*X*X*X*X*X$X$X$X$X$X*X*X*X*X#X#X#X$X*X=X*XoXD.4   w L.=X&X*X*X*X*X$X$X*X&X&X&X.X&X&X=X",
"/./././.(.(.(.(.).(.(.(.(.(.(.).(.).(.(.).(././././.(.(._.X.4 . a F.'./.'.).(.(.(.(.(.(.(.(.(./.(.).",
"9.y.r.r.y.y.y.y.9.y.y.r.9.y.y.y.y.9.y.y.y.y.9.7.7.#.y.0.*.H 7 $ s _ 0.7.y.y.y.y.y.y.y.9.9.y.y.y.r.y.",
"-.;.<.:.;.;.;.;.;.-.;.;.<.;.;.;.;.;.;.;.;.;.;.;.;.-.' ;.$.m 7 X y Y :.;.;.<.;.;.;.;.<.;.;.;.;.;.;.,.",
";.;.,.q.;.;.;.;.;.;.;.;.,.;.;.;.;.;.;.;.;.<.;.;.;.-.:.;.[ B 6 * y T :.<.:.;.:.;.;.;.;.;.;.q.q.;.;.q.",
"8.8.l.0.8.8.8.7.8.8.r.r.7.7.8.7.7.7.r.8.r.8.r.8.r.8.r.>.O.B 6 & a T t.,.r.8.r.8.8.8.8.r.7.r.r.0.7.y.",
"q.7.l.0.7.>.8.7.7.8.8.7.7.7.r.7.7.8.8.7.7.8.8.7.8.8.r.&.O.H 6 % u T r.r.8.8.7.8.7.r.7.8.7.8.8.8.8.r.",
",.&.7.9.9.9.9.9.9.9.9.9.9.9.9.9.9.9.9.8.9.9.7.7.7.9.8.,.+.H t ; u ( r.8.8.9.9.9.9.9.9.9.9.7.7.7.q.y.",
">.| 3.7.y.l.0.9.9.0.9.9.0.0.9.9.9.0.0.0.9.0.0.0.9.0.8.,.+.^ t ; 7 E 8.8.0.0.u.y.9.y.9.y.9.0.y.y.7.u.",
"M.N.N.N.m.m.N.N.N.N.N.N.N.B.N.N.N.N.N.N.N.N.N.N.N.N.B.m.f.) d O y  .N.B.N.N.m.N.m.N.m.N.N.N.N.N.N.N.",
"z.n.h.d.s.a.s.a.s.a.a.s.a.a.s.a.s.a.a.s.h.a.a.a.a.s.k.d.%.) d % y  .h.4.k.a.h.h.h.h.d.d.d.d.h.d.d.h.",
"_ _  . .(  ._ _ ` _ _ _ _ _ _ _ _ _  ._  ._ _ _ _ _  .T ) b 9 , u m ` ` _ _  . . ._ _ _ _  ._ _  . .",
"6 6 7 7 6 4 6 4 6 6 6 4 6 6 6 t y y y 6 6 4 6 6 6 6 4 4 t 2 @   X 1 6 6 6 4 4 4 6 t t 6 6 4 4 6 6 t ",
"  o                             o                                                                   ",
"0 < r r q q q q w q q q w a w < O X % 0 w u q q q q q e r e w a e e r r q q w e q q 0 w w w q w q e ",
"I.E.E.H.J.K.J.J.J.J.K.H.H.T.T.J w # u P G.Y.J.J.J.J.J.U.U.H.H.H.H.U.U.H.H.H.H.J.H.H.K.K.H.J.J.H.H.J.",
"7X7X8X5X5X5X5X5X5X9X4X5X9XuXwXR.g . g R.2XrX6X5X5X5X5X5X4X5X5X5X5X5X5X5X5X5X9X9X9X9X4X4X4X4X9X9X9X8X",
"6XeX0X0X0XeX0XeX0X0X0X0X0XtXyXQ.f . g W.4XuXeX0X0XeXeXeXeX6XeXeXeX0X0X0X0XeXeXeX0X0X0X6X4X6X0X0X0X0X",
"[.[.{.{.|.|.|.|.|.|.|.|.{..X}...y . s F.]..X|.|.|.|.|.|.|.|.|.|.|.|.|.|.|.|.|.|.|.|.|.|.|.|.|.|.|.|.",
"c.x.n.x.n.i.x.i.x.x.i.x.v.Z.n.X.q % t ( p.Z.h.x.x.i.p.v.x.x.x.x.v.i.x.x.x.x.x.x.i.i.x.x.x.x.x.p.i.x.",
"! { ] ] ' ' ' ' -.' -.! ] 1.6.N q ; d W ! 1.' ' ' ' ' ' ' ' -.' ' ' ' -.{ -.' ' { { ' -.-.;.' ! { { ",
">.>.7.9.q.q.w.q.0.0.7.q.q.5.1.R q ; d U +.z.0.0.q.0.q.w.0.0.0.q.0.q.0.q.0.0.q.0.9.0.9.q.0.0.0.0.9.9.",
">.7.7.9.0.0.0.0.0.0.0.0.8.s.4.R q O t U q.w.0.0.0.0.0.0.0.0.0.0.0.0.0.0.7.0.8.8.9.0.0.7.7.0.0.0.0.y.",
"q.8.7.0.8.8.8.r.8.8.8.r.8.a.t.U q O y U +.s.8.8.8.8.8.8.r.r.8.8.8.8.8.t.8.8.8.t.8.8.8.8.8.8.8.8.8.y.",
"q.e.w.7.7.7.r.,.8.8.,.r.%.i.i.B q , p / 7.s.t.8.8.8.8.8.,.r.,.8.8.8.,.r.,.8.8.8.,.8.8.8.8.8.r.8.8.t.",
",.4.8.8.8.r.r.8.8.8.8.r.r.s.t.R 9 , d U +.k.8.8.8.8.8.e.8.8.r.r.t.8.8.8.r.8.8.8.t.8.8.t.8.,.r.8.8.r.",
",.2.2.e.8.8.8.e.f.8.8.0.e.m.5.R t O y U q.g.8.0.8.8.8.8.8.f.8.8.8.0.8.8.f.8.8.8.f.8.8.8.8.f.w.8.8.f.",
"s.N.V.V.N.N.N.M.M.N.M.M.b.S.m.T q ; u _ h.C.g.j.N.M.M.M.N.M.M.V.N.M.N.N.N.M.N.M.N.M.N.N.N.N.V.N.N.N.",
"$.=.=.=.@.@.@.@.@.@.O.@.*.%.+.m q ; t B O.9.@.@.@.@.@.@.+.@.@.@.$.@.@.@.@.@.@.@.@.@.O.$.@.#.@.O.O.@.",
"l A A l x x x x x x x x x b b k 0 % 8 k l c x x x x x x x x x x x x x x x x x x x c z z S z z z S S ",
". . . .   .   .   .     . . .         . .   .       .     .     .     .       . .       * * * O     ",
". . . . X X X X X o X o X o X X X X X X X X X X o X o X X o X X o X . . X o X . . .   .       . o X ",
"J P P P J K K J J J J J J J J J J J J J J J K J J J J J J J J J J J J J J J J J J J K F r X - g J I ",
"+X+X+X+XoXoXoXoXoXoXoXoXoXoXoXoXoXoXoXoXoXoXoXoXoXoXoXoXoXoXoXoXoXoXoXoXoXoXoXoX%X%X@XR.D @ 0 I OX<X",
"rXtXuXtXtXyXtXtXyXyXyXyXyXyXyXyXtXtXtXyXtXtXtXtXyXyXyXyXtXtXtXtXyXyXyXyXyXyXyXyXyXuX8XXXF   4 P.tXiX",
"=X;X;X;X;X;X;X;X;X;X;X;X;X;X;X;X;X;X;X;X;X;X;X;X;X;X;X;X;X;X;X;X;X;X;X;X;X;X;X;X;X>X,XQ.D . 8 D.;X>X",
"!.!.!.~.~.~.~.~.~.~.~.~.~.~.~.~.~.~.~.~.~.~.~.~.~.~.~.~.~.~.~.~.~._.~.~.~.~.~.~.~.`._...g + 3 / `.'.",
";.;.q.q.{ ;.;.;.q.{ ;.;.;.;.+.;.;.;.;.;.;.q.;.;.{ q.;.;.q.{ ;.;.>.;.;.;.;.;.;.q.;.,.} / s : 2 v q.f.",
"' ' Q ! { ! { { { { Q Q { Q { { Q Q { Q Q Q ' ' { { { { { Q { { { { { ! { ! { { ' ' ~ Y s % = C ' ,.",
",.,.8.0.8.8.8.8.y.8.8.0.8.8.8.9.8.0.r.8.8.0.8.8.8.8.8.8.y.7.8.8.0.t.0.y.9.0.0.9.8.e.o._ p * - n f.j.",
",.t.r.0.0.y.0.y.y.0.t.y.0.y.r.0.0.r.0.y.8.y.y.0.0.y.0.y.8.0.0.0.8.0.r.0.u.y.u.9.8.w.#._ j : - n f.b.",
",.>.7.9.r.0.7.0.8.7.7.7.7.7.0.8.7.0.7.0.8.7.7.r.8.9.7.0.8.9.8.9.0.7.9.y.9.0.7.9.q.f.#.( s + 1 n 8.b.",
",.2.7.9.8.9.7.7.7.0.0.9.0.0.9.9.9.7.0.7.0.0.0.9.7.9.9.7.0.9.7.0.9.8.0.9.9.9.7.q.7.0.#._ j O - n 8.j.",
"4.4.f.f.f.f.f.f.f.f.f.f.f.f.f.f.a.f.f.f.f.f.f.f.f.f.f.f.f.f.f.f.f.f.a.f.f.f.8.e.f.M.8.` j + 1 N g.V.",
"e.s.g.g.s.s.s.s.s.s.s.s.s.s.s.s.s.s.s.s.s.s.s.s.s.s.s.s.s.s.s.s.s.s.h.s.s.f.g.g.g.B.t. .j * 1 N V.A.",
"l.z.z.z.t.t.t.t.t.t.t.t.t.t.t.t.t.t.t.t.t.t.t.t.t.t.t.t.t.t.t.8.t.t.t.u.y.u.x.u.u.s.%.X.s @ 3 N f.V.",
"G ^ G G B B B B B B B B B B B B B B B B B B B B B B B B B B B B B B B B B M M B B / m c 0 O = h ^ ( ",
"@ @ X @ # & & # & # # & # # # & # # # & # # # & % & # & # # & & & & & & & & & & & & & # O > O # # = ",
"    o o   . o . o . . o o . o . o . o . . o   . . . . . . o . o   . o . . o . . o o . @ , , , & .   "
};
