/* XPM */
static char *result[] = {
/* columns rows colors chars-per-pixel */
"50 50 221 2 ",
"   c #010204",
".  c #020B02",
"X  c #05060B",
"o  c #050D0B",
"O  c #0A0D09",
"+  c #09090B",
"@  c #021403",
"#  c #031B04",
"$  c #041C0A",
"%  c #0B190D",
"&  c #090615",
"*  c #0B0C12",
"=  c #08041B",
"-  c #110E16",
";  c #0C1313",
":  c #0E1D13",
">  c #0F1A19",
",  c #121719",
"<  c #022505",
"1  c #05230B",
"2  c #042B0A",
"3  c #0C2D0D",
"4  c #072809",
"5  c #10210F",
"6  c #013203",
"7  c #05350C",
"8  c #0C3B0B",
"9  c #0C2311",
"0  c #0D2C14",
"q  c #112D15",
"w  c #132D1B",
"e  c #152418",
"r  c #0F3313",
"t  c #0D3D14",
"y  c #0F3418",
"u  c #063714",
"i  c #133315",
"p  c #13341C",
"a  c #143C1A",
"s  c #193E1D",
"d  c #153916",
"f  c #0B0928",
"g  c #140F2E",
"h  c #181729",
"j  c #161936",
"k  c #0A0732",
"l  c #1B2627",
"z  c #1D3122",
"x  c #1F3C21",
"c  c #232729",
"v  c #2A2D37",
"b  c #293737",
"n  c #383938",
"m  c #433C3E",
"M  c #054208",
"N  c #005906",
"B  c #114414",
"V  c #15451C",
"C  c #194C1C",
"Z  c #154B1B",
"A  c #0F5316",
"S  c #13531B",
"D  c #155917",
"F  c #0D4818",
"G  c #006302",
"H  c #026A07",
"J  c #057909",
"K  c #116112",
"L  c #067414",
"P  c #137B1A",
"I  c #107C17",
"U  c #184821",
"Y  c #1D5421",
"T  c #245128",
"R  c #127621",
"E  c #2E7738",
"W  c #42523F",
"Q  c #50443A",
"!  c #437939",
"~  c #1A1548",
"^  c #1E2F48",
"/  c #322640",
"(  c #353743",
")  c #3B3956",
"_  c #2C3058",
"`  c #302F6E",
"'  c #483F6E",
"]  c #443A77",
"[  c #384448",
"{  c #3E4553",
"}  c #40434C",
"|  c #495749",
" . c #434D59",
".. c #485458",
"X. c #675E5F",
"o. c #516A5C",
"O. c #656459",
"+. c #504A6F",
"@. c #555567",
"#. c #5E567B",
"$. c #546765",
"%. c #5D796E",
"&. c #516E75",
"*. c #6D6C70",
"=. c #0E8B10",
"-. c #178517",
";. c #048A0A",
":. c #248917",
">. c #229617",
",. c #25AA19",
"<. c #1A8625",
"1. c #169327",
"2. c #23842A",
"3. c #298C2F",
"4. c #338E2E",
"5. c #2B972B",
"6. c #35972B",
"7. c #2C8A32",
"8. c #388638",
"9. c #319736",
"0. c #3BA334",
"q. c #2FB832",
"w. c #469A38",
"e. c #43AA38",
"r. c #3BB740",
"t. c #479B46",
"y. c #519458",
"u. c #619556",
"i. c #718A52",
"p. c #47A94D",
"a. c #48B646",
"s. c #59B44B",
"d. c #56A658",
"f. c #55BA58",
"g. c #63BB58",
"h. c #66B54D",
"j. c #7F9775",
"k. c #70886A",
"l. c #5FAF6C",
"z. c #63A96C",
"x. c #74A473",
"c. c #78A673",
"v. c #6DB071",
"b. c #67C74B",
"n. c #8C9F76",
"m. c #80BE68",
"M. c #90BE7C",
"N. c #84B176",
"B. c #80D04F",
"V. c #8BCA72",
"C. c #373481",
"Z. c #465C88",
"A. c #505C8E",
"S. c #49508F",
"D. c #665685",
"F. c #476888",
"G. c #6A7E89",
"H. c #5652A5",
"J. c #7D7FCA",
"K. c #6C6BC7",
"L. c #5E8C9E",
"P. c #6E8580",
"I. c #7C8E8F",
"U. c #7B9193",
"Y. c #6087A3",
"T. c #7FB6A2",
"R. c #7381C1",
"E. c #888E9B",
"W. c #8BBC85",
"Q. c #95BC97",
"!. c #8CBE95",
"~. c #9796B1",
"^. c #94ABA6",
"/. c #98C98A",
"(. c #8EC290",
"). c #8CC183",
"_. c #A0C08D",
"`. c #A3C698",
"'. c #B1D39F",
"]. c #AADC9C",
"[. c #A6D5A2",
"{. c #BDDCAD",
"}. c #B2D4A2",
"|. c #B4D0AF",
" X c #CDDFAF",
".X c #C1D8BE",
"XX c #CAE5B6",
"oX c #CDF3BE",
"OX c #9697C9",
"+X c #818CC5",
"@X c #90A6D1",
"#X c #ABA8C7",
"$X c #C8BDC0",
"%X c #A1C1DD",
"&X c #B0CED0",
"*X c #B7E2C1",
"=X c #D9DEC3",
"-X c #D9E5C9",
";X c #DDEAD4",
":X c #C6E5C3",
">X c #EDF2DC",
",X c #EDF1D3",
"<X c #FFFEDE",
"1X c #F8FAD5",
"2X c #D1D1E3",
"3X c #D9E0EF",
"4X c #D9E2F7",
"5X c #DCFBFB",
"6X c #E4EAE2",
"7X c #E5F7EA",
"8X c #FEFEE5",
"9X c #F5FBEB",
"0X c #FEFEEC",
"qX c #F4F8E1",
"wX c #E9FDFB",
"eX c #FDFEF4",
"rX c #F6FCFF",
"tX c #FEFFFD",
"yX c #F3FAF5",
"uX c #F1ECF3",
"iX c None",
/* pixels */
"iXiXiXiXiXiXiXiXiXiXiXiXiXiXiXiXiXiXiXiXiXiXiXiXiXiXiXiXiXiXiXiXiXiXiXiXiXiXiXiXiXiXiXiXiXiXiXiXiXiX",
"iXiXiXiXiXiXiXiXiXiXiXiXiXiXiXiXiXiXiXiXiXiXiXiXiXiXiXiXiXiXiXiXiXiXiXiXiXiXiXiXiXiXiXiXiXiXiXiXiXiX",
"iXiXiXiXiXiXiXiXiXiXiXiXiXiXiXiXiXiXiXiXiXiXiXiXiXiXiXiXiXiXiXiXiXiXiXiXiXiXiXiXiXiXiXiXiXiXiXiXiXiX",
"iXiXiXiXiXiXiXiXiXiXiXiXiXiXiXiXiXiXiXiXiXiXiXiXiXiXiXiXiXiXiXiXiXiXiXiXiXiXiXiXiXiXiXiXiXiXiXiXiXiX",
"iXiXiXiXiXiXiXiXiXiXiXiXiXiXiXiXiXiXiXiXiXiXiXiXiXiXiXiXiXiXiXiXiXiXiXiXiXiXiXiXiXiXiXiXiXiXiXiXiXiX",
"iXiXiXiXiXiXiXiXiXiXiXiXiXiXiXiXiXiXiXiXiXiXiXiXiXiXiXiXiXiXiXiXiXiXiXiXiXiXiXiXiXiXiXiXiXiXiXiXiXiX",
"iXiXiXiXiXiXiXiXiXiXiXiXiXiXiXiXiXiXiXiXiXiXiXiXiXiXiXiXiXiXiXiXiXiXiXiXiXiXiXiXiXiXiXiXiXiXiXiXiXiX",
"iXiXiXiXiXiXiXiXiXiXiXiXiXiXiXiXiXiXiXiXiXiXiXiXiXiXiXiXiXiXiXiXiXiXiXiXiXiXiXiXiXiXiXiXiXiXiXiXiXiX",
"iXiXiXiXiXiXiXiXiXiXiXiXiXiXiXiXiXiXiXiXiXiXiXiXiXiXiXiXiXiXiXiXiXiXiXiXiXiXiXiXiXiXiXiXiXiXiXiXiXiX",
"iXiXiXiXiXiXiXiXiXiXiXiXiXiXiXiXiXiXiXiXiXiXiXiXiXiXiXiXiXiXiXiXiXiXiXiXiXiXiXiXiXiXiXiXiXiXiXiXiXiX",
"iXiXiXiXiXiXiXiXiXiXiXiXiXiXiXiXiXiXiXiXiXiXiXiXiXiXiXiXiXiXiXiXiXiXiXiXiXiXiXiXiXiXiXiXiXiXiXiXiXiX",
"iXiXiXiXiXiXiXiXiXiXiXiXiXiXiXiXiXiXiXiXiXiXiXiXiXiXiXiXiXiXiXiXiXiXiXiXiXiXiXiXiXiXiXiXiXiXiXiXiXiX",
"iXiXiXiXiXiXiXiXiXiXiXiXiXiXiXiXiXiXiXiXiXiXiXiXiXiXiXiXiXiXiXiXiXiXiXiXiXiXiXiXiXiXiXiXiXiXiXiXiXiX",
"iXiXiXiXiXiXiXiXiXiXiXiXiXiXiXiXiXiXiX^.iXiXiXiXiXiXiXiXiXiXiXiXiXiXiXiXiXiXiXiXiXiXiXiXiXiXiXiXiXiX",
"iXiXiXiXiXiXiXiXiXiXiXiXiXiXiXiXiX^.T h b U.iXiXiXiXiXiXiXiXiXiXiXiXiXiXiXiXiXiXiXiXiXiXiXiXiXiXiXiX",
"iXiXiXiXiXiXiXiXiXiXiXiXiXiXiXiX .1 L 1.R 2 ( iXiXiXiXiXiXiXiXiXiXiXiXiXiXiXiXiXiXiXiXiXiXiXiXiXiXiX",
"iXiXiXiXiXiXiXiXiXiXiXiXiXiX$.9 D a.p.p.t.5.H y $.iXiXiXiXiXiXiXiXiXiXiXiXiXiXiXiXiXiXiXiXiXiXiXiXiX",
"iXiXiXiXiXiXiXiXiXiXiXiXiXT # u.oX9X8X1X>X{.g.<.M l %.iXiXiXiXiXiXiXiXiXiXiXiXiXiXiXiXiXiXiXiXiXiXiX",
"iXiXiXiXiXiXiXiXiXiXiX( l K W.eX>Xv.8.W.8X8X9XXXr.;.T v %.iXiXiXiXiXiXiXiXiXiXiXiXiXiXiXiXiXiXiXiXiX",
"iXiXiXiXiXiXiXiXiXv w A -.e.9XeX`.G G E ;X0XeX9X;X[.7X2X*.( o.iXiXiXiXiXiXiXiXiXiXiXiXiXiXiXiXiXiXiX",
"iXiXiXiXiXiXiXiX$.c f.q.:.w.>XeX,XQ.M.}.8X-X!.t.y.d.(.rXtX6X*./ iXiXiXiXiXiXiXiXiXiXiXiXiXiXiXiXiXiX",
"iXiXiXiXiXiXiXiX..O { n.h.:.c. X0XeX0X0X{.<.L P P P L v.tXyXL.G 6 [ iXiXiXiXiXiXiXiXiXiXiXiXiXiXiXiX",
"iXiXiXiXiXiXiXiX@.$ 7 c O.V.6.:.N.;XqX8X(.H <.7.3.7.3.J l.*XT.b.q.N z [ iXiXiXiXiXiXiXiXiXiXiXiXiXiX",
"iXiXiXiXiXiXiXiX{ . S M 4 W *.m.>.-.d.*X6Xc.L 2.7.7.2.H l.yX8X0X].f.<.S b P.iXiXiXiXiXiXiXiXiXiXiXiX",
"iXiXiXiXiXiXiXiXiXh 3 t t 7 V n i.B.v.uX0XeXQ.2.P I R !.0X<X<X8XeX>X[.p.-.8 n I.iXiXiXiXiXiXiXiXiXiX",
"iXiXiXiXiXiXiXiXiXl O 3 a x r < , m .XeX<XeXeX:X{.}.XXeX,X.Xd.8.|.8XtX/.-.5.-.B ..iXiXiXiXiXiXiXiXiX",
"iXiXiXiXiXiXiXiX{ $ S 9 o w s x C @ E.rX0XuXz.6.Q.rXeX<X<Xy.H N x.eXtX).J 0.h.! . { iXiXiXiXiXiXiXiX",
"iXiXiXiXiXiXiXiX .. Z Z p * * i d O E.5X3XD.E s.<.l.=X8XeX X/.`.6XeX[.7.h.j.n 4 . ..iXiXiXiXiXiXiXiX",
"iXiXiXiXiXiXiXiX&.  . r a C y * , + ^.7X4X) + O.).0.5.h.XXeXeXtX-Xf.0.u.k.e $ B @ ) iXiXiXiXiXiXiXiX",
"iXiXiXiXiXiXiXiXiXF.~ + # t C V 5 + ) #XrX#.@ < v n.h.,.w.w.4.4.0.v.k.z o 7 0 % ; G.iXiXiXiXiXiXiXiX",
"iXiXiXiXiXiXiXiXiXiXiXA.j   . 3 V : #.OXOX) % S 8 # } n.s.=.J 5.j.| % 7 y q ; X v &XiXiXiXiXiXiXiXiX",
"iXiXiXiXiXiXiXiXiXiXiXiXiXF.j + 5 % ~.tX#Xj   d 8 r 3 e | u.V.u.c 6 6 q ; - e B $  .iXiXiXiXiXiXiXiX",
"iXiXiXiXiXiXiXiXiXiXiXiXiXiXiXF.j   @.4XrX+.  > : C B 4 : b X.C 6 3 ; + ; U V 0   { iXiXiXiXiXiXiXiX",
"iXiXiXiXiXiXiXiXiXiXiXiXiXiXiXiXiXF.k ] @X' 4 d > % 9 Z Y F < 7 % - e r p p @   g G.iXiXiXiXiXiXiXiX",
"iXiXiXiXiXiXiXiXiXiXiXiXiXiXiXiXiXiXiX` ` g % d a p : O p a ; * - U U F 4   f C.+XiXiXiXiXiXiXiXiXiX",
"iXiXiXiXiXiXiXiXiXiXiXiXiXiXiXiXiXiXiXiXiX_ = # 7 a V 0 : * > D D r 1   = ] K.iXiXiXiXiXiXiXiXiXiXiX",
"iXiXiXiXiXiXiXiXiXiXiXiXiXiXiXiXiXiXiXiXiXiXiX^ & . 3 S Z z p A B   f ` H.iXiXiXiXiXiXiXiXiXiXiXiXiX",
"iXiXiXiXiXiXiXiXiXiXiXiXiXiXiXiXiXiXiXiXiXiXiXiXY.^ - # 5 T 9 . . ~ H.iXiXiXiXiXiXiXiXiXiXiXiXiXiXiX",
"iXiXiXiXiXiXiXiXiXiXiXiXiXiXiXiXiXiXiXiXiXiXiXiXiXiXiX~ * *   g S.+XiXiXiXiXiXiXiXiXiXiXiXiXiXiXiXiX",
"iXiXiXiXiXiXiXiXiXiXiXiXiXiXiXiXiXiXiXiXiXiXiXiXiXiXiXiXA.f _ J.@XiXiXiXiXiXiXiXiXiXiXiXiXiXiXiXiXiX",
"iXiXiXiXiXiXiXiXiXiXiXiXiXiXiXiXiXiXiXiXiXiXiXiXiXiXiXiXiXiX@XiXiXiXiXiXiXiXiXiXiXiXiXiXiXiXiXiXiXiX",
"iXiXiXiXiXiXiXiXiXiXiXiXiXiXiXiXiXiXiXiXiXiXiXiXiXiXiXiXiXiXiXiXiXiXiXiXiXiXiXiXiXiXiXiXiXiXiXiXiXiX",
"iXiXiXiXiXiXiXiXiXiXiXiXiXiXiXiXiXiXiXiXiXiXiXiXiXiXiXiXiXiXiXiXiXiXiXiXiXiXiXiXiXiXiXiXiXiXiXiXiXiX",
"iXiXiXiXiXiXiXiXiXiXiXiXiXiXiXiXiXiXiXiXiXiXiXiXiXiXiXiXiXiXiXiXiXiXiXiXiXiXiXiXiXiXiXiXiXiXiXiXiXiX",
"iXiXiXiXiXiXiXiXiXiXiXiXiXiXiXiXiXiXiXiXiXiXiXiXiXiXiXiXiXiXiXiXiXiXiXiXiXiXiXiXiXiXiXiXiXiXiXiXiXiX",
"iXiXiXiXiXiXiXiXiXiXiXiXiXiXiXiXiXiXiXiXiXiXiXiXiXiXiXiXiXiXiXiXiXiXiXiXiXiXiXiXiXiXiXiXiXiXiXiXiXiX",
"iXiXiXiXiXiXiXiXiXiXiXiXiXiXiXiXiXiXiXiXiXiXiXiXiXiXiXiXiXiXiXiXiXiXiXiXiXiXiXiXiXiXiXiXiXiXiXiXiXiX",
"iXiXiXiXiXiXiXiXiXiXiXiXiXiXiXiXiXiXiXiXiXiXiXiXiXiXiXiXiXiXiXiXiXiXiXiXiXiXiXiXiXiXiXiXiXiXiXiXiXiX",
"iXiXiXiXiXiXiXiXiXiXiXiXiXiXiXiXiXiXiXiXiXiXiXiXiXiXiXiXiXiXiXiXiXiXiXiXiXiXiXiXiXiXiXiXiXiXiXiXiXiX",
"iXiXiXiXiXiXiXiXiXiXiXiXiXiXiXiXiXiXiXiXiXiXiXiXiXiXiXiXiXiXiXiXiXiXiXiXiXiXiXiXiXiXiXiXiXiXiXiXiXiX"
};
