/* XPM */
static char *_3c04e4c300b43d79f0403e1428b4fb4tV6DDb4qgMpeWqF9[] = {
/* columns rows colors chars-per-pixel */
"50 50 221 2 ",
"   c None",
".  c #5F3E37",
"X  c #5C4339",
"o  c #6C4F3C",
"O  c #1D3E41",
"+  c #1F4349",
"@  c #224544",
"#  c #264749",
"$  c #3A4948",
"%  c #254D53",
"&  c #265559",
"*  c #245A64",
"=  c #2A5B62",
"-  c #275F68",
";  c #295F69",
":  c #27606A",
">  c #2B636C",
",  c #3F686D",
"<  c #2D6671",
"1  c #2F6A77",
"2  c #316671",
"3  c #316A75",
"4  c #3B6D75",
"5  c #356E7A",
"6  c #396E7A",
"7  c #35717C",
"8  c #38707C",
"9  c #434944",
"0  c #5F4E45",
"q  c #46534E",
"w  c #455A58",
"e  c #5A5C56",
"r  c #5A5E5C",
"t  c #665348",
"y  c #735A48",
"u  c #675C53",
"i  c #5D625C",
"p  c #77634F",
"a  c #6B6154",
"s  c #65625A",
"d  c #69665A",
"f  c #636A5F",
"g  c #716256",
"h  c #746A56",
"j  c #706D5D",
"k  c #72715C",
"l  c #4B6664",
"z  c #4A6466",
"x  c #4A676B",
"c  c #456B6E",
"v  c #496C6D",
"b  c #566B65",
"n  c #556967",
"m  c #5A6C62",
"M  c #416C72",
"N  c #4A6C71",
"B  c #4C7172",
"V  c #676B63",
"C  c #7A726B",
"Z  c #B44519",
"A  c #954E2C",
"S  c #9D572F",
"D  c #8A5839",
"F  c #9C5A39",
"G  c #AC4A23",
"H  c #B34C27",
"J  c #A9562A",
"K  c #B65623",
"L  c #B95623",
"P  c #B65825",
"I  c #BB5924",
"U  c #B4582A",
"Y  c #BC5B29",
"T  c #A65A34",
"R  c #95623B",
"E  c #BD602D",
"W  c #A96239",
"Q  c #B7693A",
"!  c #BC723D",
"~  c #DA4A1D",
"^  c #E44F1B",
"/  c #E5521D",
"(  c #E9551D",
")  c #C54E26",
"_  c #C15C25",
"`  c #C35328",
"'  c #C35D29",
"]  c #DC5222",
"[  c #D85727",
"{  c #DA5A36",
"}  c #E55323",
"|  c #E55A23",
" . c #E65827",
".. c #E45D2D",
"X. c #E25D35",
"o. c #C66127",
"O. c #C4622B",
"+. c #CC642C",
"@. c #D3652C",
"#. c #DE6029",
"$. c #D36A2C",
"%. c #DB6D2D",
"&. c #DE712E",
"*. c #C16536",
"=. c #CC6B34",
"-. c #DB6D31",
";. c #D66839",
":. c #CB7237",
">. c #C5713C",
",. c #CB743A",
"<. c #D57335",
"1. c #DD7332",
"2. c #D47439",
"3. c #DA7839",
"4. c #E56325",
"5. c #EA6225",
"6. c #E76927",
"7. c #EA6A27",
"8. c #E4652B",
"9. c #EB6529",
"0. c #E16B2C",
"q. c #EB6C2A",
"w. c #F06F2B",
"e. c #E3742E",
"r. c #EB762D",
"t. c #E7782F",
"y. c #EA782D",
"u. c #E36835",
"i. c #E2633A",
"p. c #E37431",
"a. c #EA7631",
"s. c #E77934",
"d. c #E87933",
"f. c #8D5A42",
"g. c #855B4C",
"h. c #845F51",
"j. c #88694B",
"k. c #946647",
"l. c #9B6E4A",
"z. c #95704E",
"x. c #896E52",
"c. c #8A7054",
"v. c #B16F43",
"b. c #AB7243",
"n. c #B97242",
"m. c #91786E",
"M. c #AD7C6E",
"N. c #D17352",
"B. c #E36B43",
"V. c #E46C49",
"C. c #E4724C",
"Z. c #E47653",
"A. c #E57A54",
"S. c #E47C5B",
"D. c #E67F62",
"F. c #8C8278",
"G. c #A0877D",
"H. c #E4835D",
"J. c #E9825F",
"K. c #D38D75",
"L. c #DD9D7F",
"P. c #E78866",
"I. c #E8916E",
"U. c #E79677",
"Y. c #ECA178",
"T. c #A68F81",
"R. c #B89486",
"E. c #EB9980",
"W. c #DAB398",
"Q. c #E8A788",
"!. c #E8B08B",
"~. c #EAAE95",
"^. c #ECB79A",
"/. c #F0BB98",
"(. c #CCB9A7",
"). c #E6BCA3",
"_. c #EABCA3",
"`. c #E9BBA5",
"'. c #F2C29B",
"]. c #DFC7B5",
"[. c #EEC1A3",
"{. c #E5C3AA",
"}. c #EAC4AA",
"|. c #E7CCAE",
" X c #EBCAAE",
".X c #F2C3A4",
"XX c #F3CBAC",
"oX c #F0D1AF",
"OX c #E3C6B3",
"+X c #E3CBB5",
"@X c #ECCCB1",
"#X c #E5CEB9",
"$X c #E7D4B3",
"%X c #ECD3B4",
"&X c #ECD9B6",
"*X c #E6D4BC",
"=X c #EAD5BB",
"-X c #EDDBBB",
";X c #F1D3B4",
":X c #F3D9B8",
">X c #F2DCBB",
",X c #EFE3BD",
"<X c #F4E2BE",
"1X c #F8E1BB",
"2X c #E6D8C0",
"3X c #EADDC1",
"4X c #EEE3C4",
"5X c #EEE5C8",
"6X c #F4E5C2",
"7X c #F9E6C2",
"8X c #F6EBC5",
"9X c #F9EBC4",
"0X c #F0E5C9",
"qX c #F4ECCA",
"wX c #F9EEC9",
"eX c #F7F0C7",
"rX c #F9F1C6",
"tX c #F7F1CC",
"yX c #FCF6CA",
"uX c #FCF8CB",
"iX c #F9F3D0",
/* pixels */
"                                          5XqX4X#X4X5X                                              ",
"                                *XqXqXyXyXyXyX6X|.yXyXeXwX8X5X4X                                    ",
"                          qX8X8X$X8XyXyXyXuXyX<X|.yXyXyXuXuXrX,X$XqXqX                              ",
"                      qXtXyXuXuX8X%X8XyXyXyXyX7X|.wXyXyXyXyXeX$X6XuXyXyXwX5X                        ",
"                  -XqXuXuXyXuXuXiX8X$X9XuXuXuXuX|.6XuXyXuXyX%X8XyXuXyXyXuXuX8X3X                    ",
"              qXqX-X&X8XyXuXyXuXuXeX;XQ.!.!.Q.Y.H.Y./.'.[.W.&XeXuXuXuXuXuXeX-X%XqX                  ",
"            5XyXyXyX8X<X:X-XeXwX;XQ.A. .@.Z 0.4.7.6.9.9.@.H I./.1XuXyX4X-X,X9XrXyXyX4X              ",
"          3XyXuXuXyXyXuX8X%X!.P.i.4.9.r.%.L d.r.y.y.r.r.-.H 8.#.A.U.^.%X6XyXyXyXyXyXeX4X            ",
"        ].@XeXuXuXyXyXyX6XQ.B.( 9.r.e.y.&.L a.r.y.y.r.r.%.P a.q.4.| B.^.9XyXyXyXyXyXyX%X].          ",
"        6XoX{.-XyXyXuX>XE.H ) r.y.y.y.r.&.L a.r.y.y.r.r.-.L a.y.y.q./ ;.L.1XiXyXuX<X X X3X          ",
"      5XyXuX7X;X}.;X.XP.[ Z $.y.y.y.r.r.1.K e.r.y.r.r.r.1.K d.r.r.d.q.[ G P.;X3X@X}.>XyXyX0X        ",
"      wXyXyXuXuX6X~.B.} 5.` $.r.r.r.r.r.&.K e.r.y.y.r.y.%.L e.r.r.r.y.%.Z } V.Q.%XyXyXyXyXwX        ",
"    5XyXyXyXyXuXwXQ.} | a._ $.r.r.y.y.y.1.K e.a.r.r.r.r.&.K e.y.r.r.r.%.L 9.^ I.wXyXyXyXuXyXqX      ",
"    *X-X8XyXyXuX:XZ./ q.y._ $.r.r.q.r.r.p.K e.r.r.a.r.r.1.K e.r.r.r.r.%.K u./ V.XXyXyXyXeX,X3X      ",
"    =X-X%X%X%X%XQ.X.} w.d._ $.a.r.r.r.r.&.K e.y.r.r.r.a.-.K r.r.r.r.a.%.K r.| } E.:X:X%X%X%X*X      ",
"    wXyXyXrX7X%XI.} 5.w.a.' @.r.y.r.r.r.e.K e.r.r.r.r.r.&.K d.r.r.y.r.&.L r.7./ Z.[.:X9XwXyXyX-X    ",
"    8XuXyXyXyXyXL.) +.:.2.W W :.:.,.:.<.d.L e.r.r.q.y.y.e.I 3.:.>.>.,.! J >.:.` N.<XyXuXuXuXyX&X    ",
"  #XyXuXyXyXyXyXT.9 w v N c v v c v c m l.J e.y.y.y.r.r.<.o i B N N v v c c z $ g -XuXyXyXyXyX-X    ",
"  *XyXyXyXyXuX8XF.@ & 7 7 3 - 5 7 3 ; 5 4 e Q d.y.y.t.! h 4 7 : < 7 7 : < 7 5 @ q |.uXyXyXuXuX,X    ",
"  =X7XrXuXuXuX6XC @ = 7 7 3 < 5 7 3 > 6 7 7 c x.:.2.j.v 5 8 7 < 1 7 7 < 3 7 5 % $ (.uXuXuXuX8X6X    ",
"  #X%X%X<X<X<X).g.X u s u r r s s x 6 7 7 2 < 6 n n 6 3 < 8 7 8 x r u s e u s 0 X K.<X9X9X7X%X-X    ",
"  =X@X@X>X>X6X/.{ ] 8.%.p.O.U u.0.Q p , 7 > > 8 7 7 7 < : 8 4 a Q %.%.@.G %.%.4.~ S.&X%X:X;X{.OX    ",
"  qXyXtXuXyXuXoXi./ q.y.w.$._ y.r.r.e.W i 4 6 8 < > 5 5 5 z R %.r.y.t.&.P d.r.5./ I.wXeXuXyXwXrX4X  ",
"  6XuXuXuXuXuXXXi./ r.r.r.$._ y.r.r.r.r.=.y z 5 3 > 5 x g A p.r.y.y.y.&.K p.y.7.^ P.7XuXuXyXuXyX3X  ",
"  3XwXyXrXyXuX[.X.( r.y.r.$.I d.r.r.a.r.a.K W p 4 4 u W -.K p.r.r.y.y.e.K e.r.7./ A.1XuXyXyXyXwX2X  ",
"  =X%X@X|.=X1XQ...( r.r.r.$.I d.r.a.r.r.a.I 0.-.W F =.r.p.K 1.a.y.y.r.%.L e.y.q./ V.oX7X%X@X;X%X    ",
"  qXuXwX8X:X;XQ. .| y.r.w.%.U :.e.r.a.r.s.L -.a.r.r.r.y.e.K 1.r.r.y.r.&.K e.y.r.( i.~.|.&X7X9XrXqX  ",
"  iXyXuXuXyXyXXXi.( w.r.d.! o $ k.,.a.a.d.L %.y.r.y.y.r.e.K e.r.r.r.r.&.K e.y.q.} C.>XyXyXuXuXyXiX  ",
"  tXuXyXyXuXyXXXB./ r.2.x.f q @ s j z.3.r.I $.y.r.e.r.r.e.K e.r.r.r.r.&.L e.r.q.^ Z.>XuXyXuXyXyXtX  ",
"  tXyX8XyX9X4X^.i./ ;.k V ! A D :.n.m c.2.Y $.a.r.r.r.r.e.K %.r.r.r.r.e.L e.r.7.^ C.XX9XyXuXrXyXiX  ",
"  0X=X[.}.{.}.[.V.] k.B k 2.P a.y.3.V B x.J $.d.y.r.r.r.p.K e.r.r.r.y.&.K e.r.q./ V._.[.}.@X}.>X5X  ",
"  #X%X>X9XwX8X7XS./ -.c.x x.T 2.,.c.v z.3.Y $.r.y.r.y.y.d.K &.r.r.r.y.e.K e.r.7.^ P.9X6X1X<X%X#X2X  ",
"  2XuXuXuXuXyX7XS./ 7.p.l.f z n n f l.p.d.Y $.y.y.y.r.y.e.K &.y.r.r.y.&.K e.r.7.^ D.7XuXyXuXuXyX*X  ",
"  #XwXyXuXuXiX7XP.^ 7.r.d.<.f.j v.3.r.r.d.Y $.y.y.y.r.r.d.K &.y.r.r.r.p.K p.r.7.^ D.7XuXuXuXyXyX*X  ",
"  +X=X<X7X>X:XXXZ.^ q.r.r.d.U -.r.r.y.y.d.' @.r.r.e.r.r.e.K &.y.r.r.y.&.K p.r.q./ Z.XX1X7XwX7X-X#X  ",
"    {.@X@X@XoXXXS./ q.r.r.p.K 1.a.a.r.y.y._ @.2.z.d b.&.r.K &.y.y.r.r.1.K d.r.q./ C._. X}. X}.}.].  ",
"  *X4XyXyXyXuXwXI./ 5.y.e.a.K 1.y.y.r.w.d.E R f 6 5 c h n.K e.y.y.r.y.e.K 0.a.7.^ J.9XuXuXyXwX<X*X  ",
"  *XyXuXyXrXrXwXP.^ 7.y.r.e.K %.y.y.y.a.:.p c 7 3 * 5 7 x y :.y.y.r.y.e.K p.r.7.^ Z.7XyXyXyXyXrX-X  ",
"  =XyXuXuX7X X[.V.( q.y.r.r.I %.y.y.3.l.n 4 7 6 5 > 5 8 7 4 i b.p.r.r.e.K p.r.r.( i._.:X<XuXyXuX3X  ",
"  *XwX>X X}.}.XXP.` +.>.:.>.T ! :.v.h 4 7 3 * 5 7 5 7 3 * 2 7 M h ! ,.>.S >.:.=.` N.^.{.[.;X1XrX3X  ",
"    OX`. X9XuXwXR.9 w N N c c c N M 7 5 8 5 3 4 r h.n 6 3 7 7 7 6 M c N c v v w X m.>XyX9X X`.}.#X  ",
"    7XrX8XuXyX6XT.# % 3 7 5 - 3 7 5 : 3 8 8 x g.=.r.+.g.x 7 7 2 : 7 7 3 : 7 8 > O V @XuXuXwX8X6X*X  ",
"  *XwXyXuXyXyX>XG.$ & 3 7 7 > 1 5 5 < 3 4 e F p.r.r.r.r.Q e 4 3 > 7 7 3 < 7 7 2 + V OXtXuXyXyXyX3X  ",
"  #XwXuXuXuXyX:XM.. t s s s r i V u d u k.Y ' w.r.r.r.y.r.G f.a d s s s e s s u X h.`.wXuXyXyXyX3X  ",
"    OX X>X8XyX;XS.~ | 0.%.0.L ' p.0.0.0.a.+.' a.r.r.r.r.a.L %.0.0.0.0.-.G $.6.8.~ { ~.rXrX<X1X|.+X  ",
"    9X>X@X).).^.Z.^ 7.r.r.r.O.+.w.r.r.r.y.+._ a.r.r.r.a.a.I %.r.a.r.r.p.K &.y.r.} X.Q.@X}.{. X<X4X  ",
"  *XyXyXyX7X;XQ.X.} r.r.a.a.' +.r.r.y.r.d.+.' d.r.r.r.r.a.L %.a.r.r.r.p.K e.w.r.5.} P.^.|.9XyXuX0X  ",
"  ].7XyXuXyXiXXXC./ q.r.y.a.o.o.r.r.y.r.y.@.' r.r.y.r.r.a.L %.r.r.r.r.e.K d.y.r.5.} U.1XuXuXuXyX3X  ",
"    +X:X-X>X=X`.Z.] q.d.s.s.*.O.s.d.s.s.s.$.E s.s.s.s.s.s.Y <.s.a.d.d.p.U 3.d.s.4.[ U.;X0X0X9X>X+X  ",
"                                                                                                    "
};
