/* XPM */
static char *result[] = {
/* columns rows colors chars-per-pixel */
"50 50 207 2 ",
"   c #020003",
".  c #0A0002",
"X  c #01000C",
"o  c #0C030B",
"O  c #160003",
"+  c #14040D",
"@  c #1D0109",
"#  c #010012",
"$  c #0A0411",
"%  c #00041D",
"&  c #080B19",
"*  c #08161C",
"=  c #190711",
"-  c #250005",
";  c #2C0202",
":  c #29040C",
">  c #380103",
",  c #200212",
"<  c #3F0012",
"1  c #281418",
"2  c #0E2011",
"3  c #090024",
"4  c #010628",
"5  c #1D092B",
"6  c #051225",
"7  c #07142C",
"8  c #131629",
"9  c #061937",
"0  c #000836",
"q  c #3D1022",
"w  c #2F1A32",
"e  c #331B36",
"r  c #0F2622",
"t  c #0B3F38",
"y  c #103037",
"u  c #0D2B36",
"i  c #212E24",
"p  c #2F3E2C",
"a  c #373629",
"s  c #490003",
"d  c #5C0006",
"f  c #5A0005",
"g  c #580715",
"h  c #440815",
"j  c #6D0000",
"k  c #71040A",
"l  c #750C15",
"z  c #5A1528",
"x  c #412424",
"c  c #344233",
"v  c #041D41",
"b  c #151F41",
"n  c #0B2545",
"m  c #08294C",
"M  c #12214F",
"N  c #0C2C52",
"B  c #062858",
"V  c #182959",
"C  c #0D3758",
"Z  c #13345B",
"A  c #153355",
"S  c #1C3945",
"D  c #253445",
"F  c #1B2B61",
"G  c #143B64",
"H  c #053D6D",
"J  c #393363",
"K  c #3F3B78",
"L  c #453053",
"P  c #5A2744",
"I  c #62234A",
"U  c #33405B",
"Y  c #104464",
"T  c #1B436D",
"R  c #1F4260",
"E  c #1C4875",
"W  c #244969",
"Q  c #374964",
"!  c #264677",
"~  c #255375",
"^  c #4D4F5B",
"/  c #4C505A",
"(  c #51565F",
")  c #61435B",
"_  c #4F5460",
"`  c #505662",
"'  c #444F72",
"]  c #4D486C",
"[  c #5F6F70",
"{  c #73727E",
"}  c #6A6D7D",
"|  c #860200",
" . c #930407",
".. c #8A0011",
"X. c #9A0212",
"o. c #9A0418",
"O. c #A4050B",
"+. c #B2000B",
"@. c #A5131C",
"#. c #A81211",
"$. c #A10915",
"%. c #931B26",
"&. c #A51324",
"*. c #8D3D5E",
"=. c #883E63",
"-. c #995974",
";. c #915A6D",
":. c #B15E6D",
">. c #BC7675",
",. c #1E4F81",
"<. c #1E5A85",
"1. c #1B5184",
"2. c #0C538B",
"3. c #294D83",
"4. c #205483",
"5. c #285787",
"6. c #345A8D",
"7. c #2F5C94",
"8. c #2F6D9C",
"9. c #326F9D",
"0. c #3F609B",
"q. c #36668D",
"w. c #2F73A2",
"e. c #3577A8",
"r. c #3A7DB0",
"t. c #516389",
"y. c #4D658B",
"u. c #74708C",
"i. c #5A7AA1",
"p. c #8B7EAA",
"a. c #3B84BA",
"s. c #4282BE",
"d. c #6888A8",
"f. c #6D91AC",
"g. c #648CB0",
"h. c #77A1BB",
"j. c #478FC5",
"k. c #4A93C4",
"l. c #4996CD",
"z. c #4A9CD6",
"x. c #519FD5",
"c. c #58A8DD",
"v. c #49A3DE",
"b. c #4EA6E2",
"n. c #5BACE4",
"m. c #55AAE6",
"M. c #5FB2E9",
"N. c #62B4EC",
"B. c #969C9F",
"V. c #9684B7",
"C. c #8BA1AC",
"Z. c #99A7A9",
"A. c #84A7BC",
"S. c #92B1BF",
"D. c #B0BBBB",
"F. c #8EC9B2",
"G. c #A391C5",
"H. c #93AFC2",
"J. c #86B8CF",
"K. c #B8A2CE",
"L. c #B4BCC1",
"P. c #94C5DF",
"I. c #B7CBCF",
"U. c #B6D5CB",
"Y. c #ABC9D0",
"T. c #B8CDD1",
"R. c #B7D1D0",
"E. c #BBD5D3",
"W. c #BFD6D8",
"Q. c #A6C8CF",
"!. c #9FCAE0",
"~. c #AACFE5",
"^. c #AED4EB",
"/. c #BEEAFA",
"(. c #CBDDDB",
"). c #C2D7D5",
"_. c #CCE1DD",
"`. c #DBEBDC",
"'. c #D5E3DC",
"]. c #D6F0DA",
"[. c #E6F2DE",
"{. c #DADFE4",
"}. c #EBD4EE",
"|. c #D9EEE5",
" X c #D9EFE7",
".X c #DBF1EB",
"XX c #D0EDF0",
"oX c #D9FAF6",
"OX c #D9F9F7",
"+X c #CDEFED",
"@X c #E2EEE2",
"#X c #EAEBE9",
"$X c #E6F2E3",
"%X c #EFF9E4",
"&X c #E1F4EE",
"*X c #EBF4E6",
"=X c #F2F7E5",
"-X c #F4FBE5",
";X c #F9FDE6",
":X c #F6FBE9",
">X c #FCFEEA",
",X c #EDFDFF",
"<X c #E7FEF7",
"1X c #FFFEF2",
"2X c #FFFFFD",
"3X c #FBF4F4",
"4X c None",
/* pixels */
"4X4X4X4X4X4X4X4X4X4X4X4X4X4X4X4X4X4X4X4X4X4X4X4X4X4X4X4X4X4X4X4X4X4X4X4X4X4X4X4X4X4X4X4X4X4X4X4X4X4X",
"4X4X4X4X4X4X4X4X4X4X4X4X4X4X4X4X4X4X4X4X4X4X4X4X4X* * 4X4X4X4X4X4X4X4X4X4X4X4X4X4X4X4X4X4X4X4X4X4X4X",
"4X4X4X4X4X4X4X4X4X4X4X4X4X4X4X4X4X4X4X4X4X4X4Xr . . o . . 4X4X4X4X4X4X4X4X4X4X4X4X4X4X4X4X4X4X4X4X4X",
"4X4X4X4X4X4X4X4X4X4X4X4X4X4X4X4X4X4X4X4X4X4X4X. o = = + . & 4X4X4X4X4X4X4X4X4X4X4X4X4X4X4X4X4X4X4X4X",
"4X4X4X4X4X4X4X4X4X4X4X4X4X4X4X4X4X4X4X4X4X4X4X  o $ $ o o   4X4X4X4X4X4X4X4X4X4X4X4X4X4X4X4X4X4X4X4X",
"4X4X4X4X4X4X4X4X4X4X4X4X4X4X4X4X4X4X4X4X4X4X4X  # # % # X X 4X4X4X4X4X4X4X4X4X4X4X4X4X4X4X4X4X4X4X4X",
"4X4X4X4X4X4X4X4X4X4X4X4X4X4X4X4X4X4X4X4X4X4X1 . # # # X   @ 4X4X4X4X4X4X4X4X4X4X4X4X4X4X4X4X4X4X4X4X",
"4X4X4X4X4X4X4X4X4X4X4X4X4X4X4X4X4X4X4X4X4X4X< @ # X # # X s 4X4X4X4X4X4X4X4X4X4X4X4X4X4X4X4X4X4X4X4X",
"4X4X4X4X4X4X4X4X4X4X4X4X4X4X4X4X4X4X4X4X4X4X4X+   X X X   i 4X4X4X4X4X4X4X4X4X4X4X4X4X4X4X4X4X4X4X4X",
"4X4X4X4X4X4X4X4X4X4X4X4X4X4X4X4X4X4X4X4X4X4X4X4Xo = , O 4X4X4X4X4X4X4X4X4X4X4X4X4X4X4X4X4X4X4X4X4X4X",
"4X4X4X4X4X4X4X4X4X4X4X4X4X4X4X4X4X4X4X4X4X4X4X4X2  .+.s 4X4X4X4X4X4X4X4X4X4X4X4X4X4X4X4X4X4X4X4X4X4X",
"4X4X4X4X4X4X4X4X4X4X4X4X4X4X4X4X4X4X4X4X4X4X4X4X[ :.>.;.4X4X4X4X4X4X4X4X4X4X4X4X4X4X4X4X4X4X4X4X4X4X",
"4X4X4X4X4X4X4X4X4X4X4X4X4X4X4X4X4X4X4X4X4X4XF.|.<XoXoX<X3X(.4X4X4X4X4X4X4X4X4X4X4X4X4X4X4X4X4X4X4X4X",
"4X4X4X4X4X4X4X4X4X4X4X4X4X4X4X4X4X4X4X4XF.2X2X1X>X:X>X>X>X2X2X*X4X4X4X4X4X4X4X4X4X4X4X4X4X4X4X4X4X4X",
"4X4X4X4X4X4X4X4X4X4X4X4X4X4X4X4X4X4X4X4X2X1X>X>X>X1X>X>X>X;X;X2X3X4X4X4X4X4X4X4X4X4X4X4X4X4X4X4X4X4X",
"4X4X4X4X4X4X4X4X4X4X4X4X4X4X4X4X4X4X4XF.3X$X:X>X>X;X;X>X>X=X=X$X3X4X4X4X4X4X4X4X4X4X4X4X4X4X4X4X4X4X",
"4X4X4X4X4X4X4X4X4X4X4X4X4X4X4X4X4X4X4X[.#XI.=X1X;X>X;X>X>X>XE.R.2XU.4X4X4X4X4X4X4X4X4X4X4X4X4X4X4X4X",
"4X4X4X4X4X4X4X4X4X4X4X4X4X4X4X4X4X4X4X2X`.H.'.>X;X;X;X;X>X=XH.Y.;X3X4X4X4X4X4X4X4X4X4X4X4X4X4X4X4X4X",
"4X4X4X4X4X4X4X4X4X4X4X4X4X4X4X4X4X4X].2X).H.).>X;X;X>X;X>X|.h.U.`.2XU.4X4X4X4X4X4X4X4X4X4X4X4X4X4X4X",
"4X4X4X4X4X4X4X4X4X4X4X4X4X4X4X4X4X4X3X2XXXA.T.1X>X;X;X>X>X@Xf.Y.,X2X}.4X4X4X4X4X4X4X4X4X4X4X4X4X4X4X",
"4X4X4X4X4X4X4X4X4X4X4X4X4X4X4X4X4X4X4X{ Z.d.W.1X;X;X>X>X>X&Xf.C.B.} 4X4X4X4X4X4X4X4X4X4X4X4X4X4X4X4X",
"4X4X4X4X4X4X4X4X4X4X4X4X4X4X4X4X4X4X4X; O Q XX1X>X>X;X;X>X*Xh.8 ; - 4X4X4X4X4X4X4X4X4X4X4X4X4X4X4X4X",
"4X4X4X4X4X4X4X4X4X4X4X4X4X4X4X4X4X4X4X&.j ' OX>X>X>X>X(.*X*XJ.e #.%.4X4X4X4X4X4X4X4X4X4X4X4X4X4X4X4X",
"4X4X4X4X4X4X4X4X4X4X4X4X4X4X4X4X4X4X4X$.d t.OX;X;X>X;XE.[.&X!.L  .&.4X4X4X4X4X4X4X4X4X4X4X4X4X4X4X4X",
"4X4X4X4X4X4X4X4X4X4X4X4X4X4X4X4X4X4X4XX.g i..X%X=X>X-XU.`.@XQ.' k @.4X4X4X4X4X4X4X4X4X4X4X4X4X4X4X4X",
"4X4X4X4X4X4X4X4X4X4X4X4X4X4X4X4X4X4X4XX.g d..X[.@X>X;XR.`.[.^.y.l @.4X4X4X4X4X4X4X4X4X4X4X4X4X4X4X4X",
"4X4X4X4X4X4X4X4X4X4X4X4X4X4X4X4X4X4X4X .g g.oX'.E.>X*XY.|.@X^.y.k @.4X4X4X4X4X4X4X4X4X4X4X4X4X4X4X4X",
"4X4X4X4X4X4X4X4X4X4X4X4X4X4X4X4X4X4X4XX.j u.+XU.Q.`.(.Y.W.(.^.)  .o.4X4X4X4X4X4X4X4X4X4X4X4X4X4X4X4X",
"4X4X4X4X4X4X4X4X4X4X4X4X4X4X4X4X4X4Xa X.| ) /..X|.|..X X|.+XJ.z #...4X4X4X4X4X4X4X4X4X4X4X4X4X4X4X4X",
"4X4X4X4X4X4X4X4X4X4X4X4X4X4X4X4X4X4Xa s : q J / ^ _ ` _ ^ Q D h 1 f 4X4X4X4X4X4X4X4X4X4X4X4X4X4X4X4X",
"4X4X4X4X4X4X4X4X4X4X4X4X4X4X4X4X4X4Xp f , - m H B 4   0 B 2.9 > : j 4X4X4X4X4X4X4X4X4X4X4X4X4X4X4X4X",
"4X4X4X4X4X4X4X4X4X4X4X4X4X4X4X4X4X4X4Xx : 9 r.c.j.T 4 1.l.n.9.6 > c 4X4X4X4X4X4X4X4X4X4X4X4X4X4X4X4X",
"4X4X4X4X4X4X4X4X4X4X4X4X4X4X4X4X4X4X4X4X4XT m.n.l.E % 4.z.n.v.4X4X4X4X4X4X4X4X4X4X4X4X4X4X4X4X4X4X4X",
"4X4X4X4X4X4X4X4X4X4X4X4X4X4X4X4X4X4X4X4X4XW n.c.k.T % 4.l.n.b.4X4X4X4X4X4X4X4X4X4X4X4X4X4X4X4X4X4X4X",
"4X4X4X4X4X4X4X4X4X4X4X4X4X4X4X4X4X4X4X4X4X! c.n.j.T & E l.m.b.4X4X4X4X4X4X4X4X4X4X4X4X4X4X4X4X4X4X4X",
"4X4X4X4X4X4X4X4X4X4X4X4X4X4X4X4X4X4X4X4X4X0.n.M.e.4X4XN s.N.b.3.4X4X4X4X4X4X4X4X4X4X4X4X4X4X4X4X4X4X",
"4X4X4X4X4X4X4X4X4X4X4X4X4X4X4X4X4X4X4X4X4X7.c.x.E 4X4Xn 7.m.b.! 4X4X4X4X4X4X4X4X4X4X4X4X4X4X4X4X4X4X",
"4X4X4X4X4X4X4X4X4X4X4X4X4X4X4X4X4X4X4X4X4Xy.s.a.1.4X4X4X1.a.z.5.4X4X4X4X4X4X4X4X4X4X4X4X4X4X4X4X4X4X",
"4X4X4X4X4X4X4X4X4X4X4X4X4X4X4X4X4X4X4X4X4X3.w.w.T 4X4X6 T w.e.3.4X4X4X4X4X4X4X4X4X4X4X4X4X4X4X4X4X4X",
"4X4X4X4X4X4X4X4X4X4X4X4X4X4X4X4X4X4X4X4X4XG ~ 5.N 4X4X4XC <.<.G 4X4X4X4X4X4X4X4X4X4X4X4X4X4X4X4X4X4X",
"4X4X4X4X4X4X4X4X4X4X4X4X4X4X4X4X4X4X4X4X7 N C n 9 4X4X6 v n Z N 7 4X4X4X4X4X4X4X4X4X4X4X4X4X4X4X4X4X",
"4X4X4X4X4X4X4X4X4X4X4X4X4X4X4X4X4X4X4X4XF k.q.m C 7 * 9 N A q.s.F 4X4X4X4X4X4X4X4X4X4X4X4X4X4X4X4X4X",
"4X4X4X4X4X4X4X4X4X4X4X4X4X4X4X4X4X4X4X4XV 9.~ N 7 & 6 & 9 A ~ r.F 4X4X4X4X4X4X4X4X4X4X4X4X4X4X4X4X4X",
"4X4X4X4X4X4X4X4X4X4X4X4X4X4X4X4X4X4X4X4X3 Y C C 9 & r $ n C Y Y 3 4X4X4X4X4X4X4X4X4X4X4X4X4X4X4X4X4X",
"4X4X4X4X4X4X4X4X4X4X4X4X4X4X4X4X4X4X4X4X7 b G W M t 4Xy V W W v 6 4X4X4X4X4X4X4X4X4X4X4X4X4X4X4X4X4X",
"4X4X4X4X4X4X4X4X4X4X4X4X4X4X4X4X4X4X4X4Xp J Z.L.K t 4X4X] D.Z.J 4X4X4X4X4X4X4X4X4X4X4X4X4X4X4X4X4X4X",
"4X4X4X4X4X4X4X4X4X4X4X4X4X4X4X4X4X4X4X4Xe p.3X2XG.y 4XS K.2X,XV.e 4X4X4X4X4X4X4X4X4X4X4X4X4X4X4X4X4X",
"4X4X4X4X4X4X4X4X4X4X4X4X4X4X4X4X4X4X4X4X3 P ;.-.;.5 4 5 *.-.-.I 8 4X4X4X4X4X4X4X4X4X4X4X4X4X4X4X4X4X",
"4X4X4X4X4X4X4X4X4X4X4X4X4X4X4X4X4X4X4X4X4X4X4X4X4X4X4X4X4X4X4X4X4X4X4X4X4X4X4X4X4X4X4X4X4X4X4X4X4X4X",
"4X4X4X4X4X4X4X4X4X4X4X4X4X4X4X4X4X4X4X4X4X4X4X4X4X4X4X4X4X4X4X4X4X4X4X4X4X4X4X4X4X4X4X4X4X4X4X4X4X4X"
};
